<svg width="592" height="37" viewBox="0 0 592 37" fill="none" xmlns="http://www.w3.org/2000/svg">
<path d="M207.816 28V18.0059H208.979V28H207.816ZM215.104 20.3711C215.992 20.3711 216.664 20.5898 217.12 21.0273C217.576 21.4603 217.804 22.1576 217.804 23.1191V28H216.683V23.1943C216.683 22.57 216.539 22.1029 216.252 21.793C215.969 21.4831 215.534 21.3281 214.946 21.3281C214.117 21.3281 213.534 21.5628 213.196 22.0322C212.859 22.5016 212.69 23.1829 212.69 24.0762V28H211.556V20.5078H212.472L212.643 21.5879H212.704C212.864 21.3236 213.066 21.1025 213.312 20.9248C213.559 20.7425 213.834 20.6058 214.14 20.5146C214.445 20.4189 214.766 20.3711 215.104 20.3711ZM224.988 25.9492C224.988 26.4277 224.868 26.8311 224.626 27.1592C224.389 27.4827 224.047 27.7266 223.601 27.8906C223.159 28.0547 222.63 28.1367 222.015 28.1367C221.491 28.1367 221.037 28.0957 220.654 28.0137C220.271 27.9316 219.937 27.8154 219.649 27.665V26.6191C219.955 26.7695 220.319 26.9062 220.743 27.0293C221.167 27.1523 221.6 27.2139 222.042 27.2139C222.689 27.2139 223.159 27.109 223.45 26.8994C223.742 26.6898 223.888 26.4049 223.888 26.0449C223.888 25.8398 223.828 25.6598 223.71 25.5049C223.596 25.3454 223.402 25.1927 223.129 25.0469C222.855 24.8965 222.477 24.7324 221.994 24.5547C221.516 24.3724 221.101 24.1924 220.75 24.0146C220.404 23.8324 220.135 23.6113 219.943 23.3516C219.757 23.0918 219.663 22.7546 219.663 22.3398C219.663 21.7064 219.918 21.221 220.429 20.8838C220.944 20.542 221.618 20.3711 222.452 20.3711C222.903 20.3711 223.325 20.4167 223.717 20.5078C224.113 20.5944 224.482 20.7129 224.824 20.8633L224.441 21.7725C224.132 21.6403 223.801 21.5286 223.45 21.4375C223.099 21.3464 222.742 21.3008 222.377 21.3008C221.853 21.3008 221.45 21.3874 221.167 21.5605C220.889 21.7337 220.75 21.9707 220.75 22.2715C220.75 22.5039 220.814 22.6953 220.941 22.8457C221.074 22.9961 221.283 23.1374 221.57 23.2695C221.857 23.4017 222.236 23.5566 222.705 23.7344C223.174 23.9076 223.58 24.0876 223.922 24.2744C224.264 24.4567 224.526 24.68 224.708 24.9443C224.895 25.2041 224.988 25.5391 224.988 25.9492ZM229.233 27.207C229.42 27.207 229.612 27.1911 229.808 27.1592C230.004 27.1273 230.163 27.0885 230.286 27.043V27.9248C230.154 27.984 229.969 28.0342 229.732 28.0752C229.5 28.1162 229.272 28.1367 229.049 28.1367C228.652 28.1367 228.292 28.0684 227.969 27.9316C227.645 27.7904 227.385 27.5534 227.189 27.2207C226.998 26.888 226.902 26.4277 226.902 25.8398V21.3965H225.836V20.8428L226.909 20.3984L227.36 18.7715H228.044V20.5078H230.238V21.3965H228.044V25.8057C228.044 26.2751 228.151 26.626 228.365 26.8584C228.584 27.0908 228.873 27.207 229.233 27.207ZM234.606 20.3848C235.5 20.3848 236.163 20.5853 236.596 20.9863C237.029 21.3874 237.245 22.0277 237.245 22.9072V28H236.418L236.199 26.8926H236.145C235.935 27.166 235.716 27.3962 235.488 27.583C235.26 27.7653 234.996 27.9043 234.695 28C234.399 28.0911 234.035 28.1367 233.602 28.1367C233.146 28.1367 232.74 28.057 232.385 27.8975C232.034 27.738 231.756 27.4964 231.551 27.1729C231.35 26.8493 231.25 26.4391 231.25 25.9424C231.25 25.195 231.546 24.6208 232.139 24.2197C232.731 23.8187 233.633 23.5999 234.846 23.5635L236.138 23.5088V23.0508C236.138 22.4036 235.999 21.9502 235.721 21.6904C235.443 21.4307 235.051 21.3008 234.545 21.3008C234.153 21.3008 233.779 21.3577 233.424 21.4717C233.068 21.5856 232.731 21.7201 232.412 21.875L232.063 21.0137C232.401 20.8405 232.788 20.6924 233.226 20.5693C233.663 20.4463 234.123 20.3848 234.606 20.3848ZM236.124 24.3086L234.982 24.3564C234.048 24.3929 233.39 24.5456 233.007 24.8145C232.624 25.0833 232.433 25.4639 232.433 25.9561C232.433 26.3844 232.562 26.7012 232.822 26.9062C233.082 27.1113 233.426 27.2139 233.854 27.2139C234.52 27.2139 235.064 27.0293 235.488 26.6602C235.912 26.291 236.124 25.7373 236.124 24.999V24.3086ZM241.675 31.3633C240.69 31.3633 239.932 31.1787 239.398 30.8096C238.865 30.445 238.599 29.9323 238.599 29.2715C238.599 28.8021 238.747 28.401 239.043 28.0684C239.344 27.7357 239.758 27.5146 240.287 27.4053C240.091 27.3141 239.923 27.1774 239.781 26.9951C239.645 26.8128 239.576 26.6032 239.576 26.3662C239.576 26.0928 239.651 25.8535 239.802 25.6484C239.957 25.4388 240.191 25.2383 240.506 25.0469C240.114 24.8874 239.795 24.6185 239.549 24.2402C239.307 23.8574 239.187 23.4131 239.187 22.9072C239.187 22.3695 239.298 21.9115 239.521 21.5332C239.745 21.1504 240.068 20.8587 240.492 20.6582C240.916 20.4577 241.429 20.3574 242.03 20.3574C242.162 20.3574 242.295 20.3643 242.427 20.3779C242.563 20.387 242.693 20.403 242.816 20.4258C242.939 20.444 243.047 20.4668 243.138 20.4941H245.708V21.2256L244.327 21.3965C244.464 21.5742 244.578 21.7884 244.669 22.0391C244.76 22.2897 244.806 22.5677 244.806 22.873C244.806 23.6204 244.553 24.2152 244.047 24.6572C243.541 25.0947 242.846 25.3135 241.962 25.3135C241.752 25.3135 241.538 25.2952 241.319 25.2588C241.096 25.3818 240.925 25.5186 240.807 25.6689C240.693 25.8193 240.636 25.9925 240.636 26.1885C240.636 26.3343 240.679 26.4505 240.766 26.5371C240.857 26.6237 240.987 26.6875 241.155 26.7285C241.324 26.765 241.527 26.7832 241.764 26.7832H243.083C243.899 26.7832 244.523 26.9541 244.956 27.2959C245.394 27.6377 245.612 28.1367 245.612 28.793C245.612 29.6224 245.275 30.2581 244.601 30.7002C243.926 31.1423 242.951 31.3633 241.675 31.3633ZM241.709 30.4746C242.329 30.4746 242.841 30.4108 243.247 30.2832C243.657 30.1602 243.963 29.9801 244.163 29.7432C244.368 29.5107 244.471 29.2327 244.471 28.9092C244.471 28.6084 244.402 28.3805 244.266 28.2256C244.129 28.0752 243.928 27.9749 243.664 27.9248C243.4 27.8701 243.076 27.8428 242.693 27.8428H241.395C241.057 27.8428 240.763 27.8952 240.513 28C240.262 28.1048 240.068 28.2598 239.932 28.4648C239.799 28.6699 239.733 28.9251 239.733 29.2305C239.733 29.6361 239.904 29.9437 240.246 30.1533C240.588 30.3675 241.076 30.4746 241.709 30.4746ZM242.003 24.4863C242.545 24.4863 242.953 24.3496 243.227 24.0762C243.5 23.8027 243.637 23.404 243.637 22.8799C243.637 22.3193 243.498 21.9001 243.22 21.6221C242.942 21.3395 242.532 21.1982 241.989 21.1982C241.47 21.1982 241.069 21.3441 240.786 21.6357C240.508 21.9229 240.369 22.3444 240.369 22.9004C240.369 23.4108 240.51 23.8027 240.793 24.0762C241.076 24.3496 241.479 24.4863 242.003 24.4863ZM250.589 20.3711C250.739 20.3711 250.896 20.3802 251.061 20.3984C251.225 20.4121 251.37 20.4326 251.498 20.46L251.354 21.5127C251.231 21.4808 251.095 21.4557 250.944 21.4375C250.794 21.4193 250.653 21.4102 250.521 21.4102C250.22 21.4102 249.935 21.4717 249.666 21.5947C249.402 21.7132 249.169 21.8864 248.969 22.1143C248.768 22.3376 248.611 22.6087 248.497 22.9277C248.383 23.2422 248.326 23.5931 248.326 23.9805V28H247.185V20.5078H248.128L248.251 21.8887H248.299C248.454 21.6107 248.641 21.3577 248.859 21.1299C249.078 20.8975 249.331 20.7129 249.618 20.5762C249.91 20.4395 250.233 20.3711 250.589 20.3711ZM255.716 20.3848C256.609 20.3848 257.272 20.5853 257.705 20.9863C258.138 21.3874 258.354 22.0277 258.354 22.9072V28H257.527L257.309 26.8926H257.254C257.044 27.166 256.826 27.3962 256.598 27.583C256.37 27.7653 256.105 27.9043 255.805 28C255.508 28.0911 255.144 28.1367 254.711 28.1367C254.255 28.1367 253.85 28.057 253.494 27.8975C253.143 27.738 252.865 27.4964 252.66 27.1729C252.46 26.8493 252.359 26.4391 252.359 25.9424C252.359 25.195 252.656 24.6208 253.248 24.2197C253.84 23.8187 254.743 23.5999 255.955 23.5635L257.247 23.5088V23.0508C257.247 22.4036 257.108 21.9502 256.83 21.6904C256.552 21.4307 256.16 21.3008 255.654 21.3008C255.262 21.3008 254.889 21.3577 254.533 21.4717C254.178 21.5856 253.84 21.7201 253.521 21.875L253.173 21.0137C253.51 20.8405 253.897 20.6924 254.335 20.5693C254.772 20.4463 255.233 20.3848 255.716 20.3848ZM257.233 24.3086L256.092 24.3564C255.158 24.3929 254.499 24.5456 254.116 24.8145C253.733 25.0833 253.542 25.4639 253.542 25.9561C253.542 26.3844 253.672 26.7012 253.932 26.9062C254.191 27.1113 254.535 27.2139 254.964 27.2139C255.629 27.2139 256.174 27.0293 256.598 26.6602C257.021 26.291 257.233 25.7373 257.233 24.999V24.3086ZM268.827 20.3711C269.652 20.3711 270.274 20.5876 270.693 21.0205C271.113 21.4489 271.322 22.1393 271.322 23.0918V28H270.201V23.1465C270.201 22.5404 270.069 22.0869 269.805 21.7861C269.545 21.4808 269.158 21.3281 268.643 21.3281C267.918 21.3281 267.392 21.5378 267.063 21.957C266.735 22.3763 266.571 22.9938 266.571 23.8096V28H265.443V23.1465C265.443 22.7409 265.384 22.4036 265.266 22.1348C265.152 21.8659 264.979 21.6654 264.746 21.5332C264.518 21.3965 264.229 21.3281 263.878 21.3281C263.381 21.3281 262.982 21.4307 262.682 21.6357C262.381 21.8408 262.162 22.1462 262.025 22.5518C261.893 22.9528 261.827 23.4473 261.827 24.0352V28H260.692V20.5078H261.608L261.779 21.5674H261.841C261.991 21.3076 262.18 21.0889 262.408 20.9111C262.636 20.7334 262.891 20.599 263.174 20.5078C263.456 20.4167 263.757 20.3711 264.076 20.3711C264.646 20.3711 265.122 20.4782 265.505 20.6924C265.892 20.902 266.173 21.2233 266.346 21.6562H266.407C266.653 21.2233 266.991 20.902 267.419 20.6924C267.847 20.4782 268.317 20.3711 268.827 20.3711ZM304.08 28H302.918V18.0059H308.482V19.0312H304.08V22.6953H308.216V23.7139H304.08V28ZM312.782 20.3848C313.675 20.3848 314.339 20.5853 314.771 20.9863C315.204 21.3874 315.421 22.0277 315.421 22.9072V28H314.594L314.375 26.8926H314.32C314.111 27.166 313.892 27.3962 313.664 27.583C313.436 27.7653 313.172 27.9043 312.871 28C312.575 28.0911 312.21 28.1367 311.777 28.1367C311.322 28.1367 310.916 28.057 310.561 27.8975C310.21 27.738 309.932 27.4964 309.727 27.1729C309.526 26.8493 309.426 26.4391 309.426 25.9424C309.426 25.195 309.722 24.6208 310.314 24.2197C310.907 23.8187 311.809 23.5999 313.021 23.5635L314.313 23.5088V23.0508C314.313 22.4036 314.174 21.9502 313.896 21.6904C313.618 21.4307 313.227 21.3008 312.721 21.3008C312.329 21.3008 311.955 21.3577 311.6 21.4717C311.244 21.5856 310.907 21.7201 310.588 21.875L310.239 21.0137C310.576 20.8405 310.964 20.6924 311.401 20.5693C311.839 20.4463 312.299 20.3848 312.782 20.3848ZM314.3 24.3086L313.158 24.3564C312.224 24.3929 311.565 24.5456 311.183 24.8145C310.8 25.0833 310.608 25.4639 310.608 25.9561C310.608 26.3844 310.738 26.7012 310.998 26.9062C311.258 27.1113 311.602 27.2139 312.03 27.2139C312.696 27.2139 313.24 27.0293 313.664 26.6602C314.088 26.291 314.3 25.7373 314.3 24.999V24.3086ZM318.9 28H317.759V17.3633H318.9V28ZM324.185 20.3711C324.823 20.3711 325.369 20.5124 325.825 20.7949C326.281 21.0775 326.63 21.474 326.871 21.9844C327.113 22.4902 327.233 23.0827 327.233 23.7617V24.4658H322.059C322.072 25.3454 322.291 26.0153 322.715 26.4756C323.139 26.9359 323.736 27.166 324.506 27.166C324.98 27.166 325.399 27.1227 325.764 27.0361C326.128 26.9495 326.507 26.8219 326.898 26.6533V27.6514C326.52 27.82 326.144 27.943 325.771 28.0205C325.401 28.098 324.964 28.1367 324.458 28.1367C323.738 28.1367 323.109 27.9909 322.571 27.6992C322.038 27.403 321.623 26.9701 321.327 26.4004C321.031 25.8307 320.883 25.1335 320.883 24.3086C320.883 23.502 321.017 22.8047 321.286 22.2168C321.56 21.6243 321.942 21.1686 322.435 20.8496C322.931 20.5306 323.515 20.3711 324.185 20.3711ZM324.171 21.3008C323.565 21.3008 323.082 21.499 322.722 21.8955C322.362 22.292 322.147 22.8457 322.079 23.5566H326.044C326.039 23.11 325.969 22.7181 325.832 22.3809C325.7 22.0391 325.497 21.7747 325.224 21.5879C324.95 21.3965 324.599 21.3008 324.171 21.3008ZM335.799 28.1367C335.124 28.1367 334.53 27.9977 334.015 27.7197C333.5 27.4417 333.099 27.0179 332.812 26.4482C332.524 25.8786 332.381 25.1608 332.381 24.2949C332.381 23.388 332.531 22.6475 332.832 22.0732C333.137 21.4945 333.557 21.0661 334.09 20.7881C334.623 20.5101 335.229 20.3711 335.908 20.3711C336.282 20.3711 336.642 20.4098 336.988 20.4873C337.339 20.5602 337.626 20.6536 337.85 20.7676L337.508 21.7178C337.28 21.6266 337.016 21.5446 336.715 21.4717C336.419 21.3988 336.141 21.3623 335.881 21.3623C335.361 21.3623 334.928 21.474 334.582 21.6973C334.24 21.9206 333.983 22.2487 333.81 22.6816C333.641 23.1146 333.557 23.6478 333.557 24.2812C333.557 24.8874 333.639 25.4046 333.803 25.833C333.971 26.2614 334.22 26.5895 334.548 26.8174C334.881 27.0407 335.295 27.1523 335.792 27.1523C336.188 27.1523 336.546 27.1113 336.865 27.0293C337.184 26.9427 337.474 26.8424 337.733 26.7285V27.7402C337.483 27.8678 337.202 27.9658 336.893 28.0342C336.587 28.1025 336.223 28.1367 335.799 28.1367ZM345.971 24.2402C345.971 24.8555 345.891 25.4046 345.731 25.8877C345.572 26.3708 345.342 26.7786 345.041 27.1113C344.74 27.444 344.376 27.6992 343.947 27.877C343.523 28.0501 343.043 28.1367 342.505 28.1367C342.004 28.1367 341.543 28.0501 341.124 27.877C340.709 27.6992 340.349 27.444 340.044 27.1113C339.743 26.7786 339.508 26.3708 339.34 25.8877C339.176 25.4046 339.094 24.8555 339.094 24.2402C339.094 23.4199 339.233 22.7227 339.511 22.1484C339.789 21.5697 340.185 21.1299 340.7 20.8291C341.22 20.5238 341.837 20.3711 342.553 20.3711C343.236 20.3711 343.833 20.5238 344.344 20.8291C344.859 21.1344 345.257 21.5765 345.54 22.1553C345.827 22.7295 345.971 23.4245 345.971 24.2402ZM340.27 24.2402C340.27 24.8418 340.349 25.3636 340.509 25.8057C340.668 26.2477 340.914 26.5895 341.247 26.8311C341.58 27.0726 342.008 27.1934 342.532 27.1934C343.052 27.1934 343.478 27.0726 343.811 26.8311C344.148 26.5895 344.396 26.2477 344.556 25.8057C344.715 25.3636 344.795 24.8418 344.795 24.2402C344.795 23.6432 344.715 23.1283 344.556 22.6953C344.396 22.2578 344.15 21.9206 343.817 21.6836C343.485 21.4466 343.054 21.3281 342.525 21.3281C341.746 21.3281 341.174 21.5856 340.81 22.1006C340.45 22.6156 340.27 23.3288 340.27 24.2402ZM351.48 20.3711C352.369 20.3711 353.041 20.5898 353.497 21.0273C353.953 21.4603 354.181 22.1576 354.181 23.1191V28H353.06V23.1943C353.06 22.57 352.916 22.1029 352.629 21.793C352.346 21.4831 351.911 21.3281 351.323 21.3281C350.494 21.3281 349.91 21.5628 349.573 22.0322C349.236 22.5016 349.067 23.1829 349.067 24.0762V28H347.933V20.5078H348.849L349.02 21.5879H349.081C349.241 21.3236 349.443 21.1025 349.689 20.9248C349.936 20.7425 350.211 20.6058 350.517 20.5146C350.822 20.4189 351.143 20.3711 351.48 20.3711ZM362.979 24.2402C362.979 24.8555 362.899 25.4046 362.739 25.8877C362.58 26.3708 362.35 26.7786 362.049 27.1113C361.748 27.444 361.383 27.6992 360.955 27.877C360.531 28.0501 360.05 28.1367 359.513 28.1367C359.011 28.1367 358.551 28.0501 358.132 27.877C357.717 27.6992 357.357 27.444 357.052 27.1113C356.751 26.7786 356.516 26.3708 356.348 25.8877C356.184 25.4046 356.102 24.8555 356.102 24.2402C356.102 23.4199 356.241 22.7227 356.519 22.1484C356.797 21.5697 357.193 21.1299 357.708 20.8291C358.228 20.5238 358.845 20.3711 359.561 20.3711C360.244 20.3711 360.841 20.5238 361.352 20.8291C361.867 21.1344 362.265 21.5765 362.548 22.1553C362.835 22.7295 362.979 23.4245 362.979 24.2402ZM357.277 24.2402C357.277 24.8418 357.357 25.3636 357.517 25.8057C357.676 26.2477 357.922 26.5895 358.255 26.8311C358.588 27.0726 359.016 27.1934 359.54 27.1934C360.06 27.1934 360.486 27.0726 360.818 26.8311C361.156 26.5895 361.404 26.2477 361.563 25.8057C361.723 25.3636 361.803 24.8418 361.803 24.2402C361.803 23.6432 361.723 23.1283 361.563 22.6953C361.404 22.2578 361.158 21.9206 360.825 21.6836C360.493 21.4466 360.062 21.3281 359.533 21.3281C358.754 21.3281 358.182 21.5856 357.817 22.1006C357.457 22.6156 357.277 23.3288 357.277 24.2402ZM369.787 25.9492C369.787 26.4277 369.666 26.8311 369.425 27.1592C369.188 27.4827 368.846 27.7266 368.399 27.8906C367.957 28.0547 367.429 28.1367 366.813 28.1367C366.289 28.1367 365.836 28.0957 365.453 28.0137C365.07 27.9316 364.735 27.8154 364.448 27.665V26.6191C364.754 26.7695 365.118 26.9062 365.542 27.0293C365.966 27.1523 366.399 27.2139 366.841 27.2139C367.488 27.2139 367.957 27.109 368.249 26.8994C368.541 26.6898 368.687 26.4049 368.687 26.0449C368.687 25.8398 368.627 25.6598 368.509 25.5049C368.395 25.3454 368.201 25.1927 367.928 25.0469C367.654 24.8965 367.276 24.7324 366.793 24.5547C366.314 24.3724 365.9 24.1924 365.549 24.0146C365.202 23.8324 364.934 23.6113 364.742 23.3516C364.555 23.0918 364.462 22.7546 364.462 22.3398C364.462 21.7064 364.717 21.221 365.228 20.8838C365.743 20.542 366.417 20.3711 367.251 20.3711C367.702 20.3711 368.124 20.4167 368.516 20.5078C368.912 20.5944 369.281 20.7129 369.623 20.8633L369.24 21.7725C368.93 21.6403 368.6 21.5286 368.249 21.4375C367.898 21.3464 367.54 21.3008 367.176 21.3008C366.652 21.3008 366.248 21.3874 365.966 21.5605C365.688 21.7337 365.549 21.9707 365.549 22.2715C365.549 22.5039 365.613 22.6953 365.74 22.8457C365.872 22.9961 366.082 23.1374 366.369 23.2695C366.656 23.4017 367.035 23.5566 367.504 23.7344C367.973 23.9076 368.379 24.0876 368.721 24.2744C369.062 24.4567 369.325 24.68 369.507 24.9443C369.694 25.2041 369.787 25.5391 369.787 25.9492ZM374.613 28.1367C373.939 28.1367 373.344 27.9977 372.829 27.7197C372.314 27.4417 371.913 27.0179 371.626 26.4482C371.339 25.8786 371.195 25.1608 371.195 24.2949C371.195 23.388 371.346 22.6475 371.646 22.0732C371.952 21.4945 372.371 21.0661 372.904 20.7881C373.438 20.5101 374.044 20.3711 374.723 20.3711C375.096 20.3711 375.456 20.4098 375.803 20.4873C376.154 20.5602 376.441 20.6536 376.664 20.7676L376.322 21.7178C376.094 21.6266 375.83 21.5446 375.529 21.4717C375.233 21.3988 374.955 21.3623 374.695 21.3623C374.176 21.3623 373.743 21.474 373.396 21.6973C373.055 21.9206 372.797 22.2487 372.624 22.6816C372.455 23.1146 372.371 23.6478 372.371 24.2812C372.371 24.8874 372.453 25.4046 372.617 25.833C372.786 26.2614 373.034 26.5895 373.362 26.8174C373.695 27.0407 374.11 27.1523 374.606 27.1523C375.003 27.1523 375.361 27.1113 375.68 27.0293C375.999 26.9427 376.288 26.8424 376.548 26.7285V27.7402C376.297 27.8678 376.017 27.9658 375.707 28.0342C375.402 28.1025 375.037 28.1367 374.613 28.1367ZM384.785 24.2402C384.785 24.8555 384.705 25.4046 384.546 25.8877C384.386 26.3708 384.156 26.7786 383.855 27.1113C383.555 27.444 383.19 27.6992 382.762 27.877C382.338 28.0501 381.857 28.1367 381.319 28.1367C380.818 28.1367 380.358 28.0501 379.938 27.877C379.524 27.6992 379.164 27.444 378.858 27.1113C378.558 26.7786 378.323 26.3708 378.154 25.8877C377.99 25.4046 377.908 24.8555 377.908 24.2402C377.908 23.4199 378.047 22.7227 378.325 22.1484C378.603 21.5697 379 21.1299 379.515 20.8291C380.034 20.5238 380.652 20.3711 381.367 20.3711C382.051 20.3711 382.648 20.5238 383.158 20.8291C383.673 21.1344 384.072 21.5765 384.354 22.1553C384.642 22.7295 384.785 23.4245 384.785 24.2402ZM379.084 24.2402C379.084 24.8418 379.164 25.3636 379.323 25.8057C379.483 26.2477 379.729 26.5895 380.062 26.8311C380.394 27.0726 380.823 27.1934 381.347 27.1934C381.866 27.1934 382.292 27.0726 382.625 26.8311C382.962 26.5895 383.211 26.2477 383.37 25.8057C383.53 25.3636 383.609 24.8418 383.609 24.2402C383.609 23.6432 383.53 23.1283 383.37 22.6953C383.211 22.2578 382.965 21.9206 382.632 21.6836C382.299 21.4466 381.868 21.3281 381.34 21.3281C380.561 21.3281 379.989 21.5856 379.624 22.1006C379.264 22.6156 379.084 23.3288 379.084 24.2402Z" fill="#FF9900"/>
<path d="M206.449 28.8545H272.457V29.1963H206.449V28.8545ZM301.551 28.8545H385.551V29.1963H301.551V28.8545Z" fill="#FF9900"/>
<line x1="24" y1="0.5" x2="592.001" y2="0.5" stroke="#ECEFF2"/>
</svg>
